<?xml version="1.0" encoding="iso-8859-1"?>
<!-- Uploaded to: SVG Repo, www.svgrepo.com, Generator: SVG Repo Mixer Tools -->
<svg fill="#000000" height="800px" width="800px" version="1.1" id="Layer_1" xmlns="http://www.w3.org/2000/svg" xmlns:xlink="http://www.w3.org/1999/xlink" 
	 viewBox="0 0 512 512" xml:space="preserve">
<g>
	<g>
		<g>
			<path d="M247.18,128c29.461,0,53.333-23.872,53.333-53.333c0-29.461-23.872-53.333-53.333-53.333s-53.333,23.872-53.333,53.333
				C193.847,104.128,217.719,128,247.18,128z"/>
			<path d="M96.012,106.667c29.461,0,53.333-23.872,53.333-53.333C149.346,23.872,125.473,0,96.012,0
				C66.551,0,42.679,23.872,42.679,53.333C42.679,82.795,66.551,106.667,96.012,106.667z"/>
			<path d="M508.855,493.781l-57.749-57.749c11.243-14.443,18.197-32.363,18.197-52.053c0-47.061-38.272-85.333-85.333-85.333
				s-85.333,38.272-85.333,85.333s38.272,85.333,85.333,85.333c19.669,0,37.589-6.976,52.053-18.197l57.749,57.749
				c2.091,2.091,4.821,3.136,7.552,3.136c2.731,0,5.461-1.045,7.552-3.115C513.015,504.725,513.015,497.963,508.855,493.781z
				 M383.991,448c-35.285,0-64-28.715-64-64c0-35.285,28.715-64,64-64c35.285,0,64,28.715,64,64
				C447.991,419.285,419.276,448,383.991,448z"/>
			<path d="M191.756,303.723l-14.123-123.925C174.263,150.272,150.882,128,123.255,128H68.77c-27.627,0-51.029,22.272-54.379,51.797
				L0.268,303.701c-1.195,10.368,2.005,20.651,8.768,28.224c5.803,6.528,13.547,10.304,21.909,10.773l11.776,159.403
				c0.405,5.568,5.056,9.899,10.645,9.899H138.7c5.589,0,10.219-4.309,10.645-9.877l11.776-159.403
				c8.363-0.469,16.085-4.267,21.909-10.773C189.751,324.395,192.951,314.069,191.756,303.723z"/>
			<path d="M277.324,384c0-39.488,21.781-75.605,56.811-94.229c3.925-2.091,6.144-6.379,5.568-10.773l-10.923-84.416
				c-3.456-26.624-26.816-46.677-54.379-46.677h-54.464c-5.504,0-11.029,0.896-16.875,2.731c-5.504,1.749-8.64,7.552-7.04,13.12
				c1.259,4.416,2.261,8.917,2.816,13.632l14.123,123.904c1.856,16.405-3.264,32.747-14.059,44.843
				c-2.667,2.965-5.931,5.781-10.048,8.555c-3.179,2.176-4.949,5.867-4.629,9.707l9.643,115.051
				c0.448,5.525,5.077,9.771,10.624,9.771h85.333c5.547,0,10.176-4.245,10.624-9.771l1.856-22.336
				c0.235-2.667-0.576-5.355-2.219-7.467C285.196,430.677,277.324,407.957,277.324,384z"/>
		</g>
	</g>
</g>
</svg>